<svg version="1.0" xmlns="http://www.w3.org/2000/svg" width="1216" height="128" viewBox="0 0 912 96"><path d="M254.3 14.5c-12.5 3.5-20.2 9.7-25 20-2.4 5.2-2.8 7.3-2.8 15 0 8 .3 9.7 3.1 15.5 7.6 15.8 21.4 22.2 43.2 20 14.6-1.5 13.2.7 13.2-20.6V46h-25v7.9l7.3.3 7.2.3.3 10.7.3 10.7-4.7.7c-12.2 1.8-23.7-2.7-29.3-11.5-9-14-4.7-32.4 9.4-39.6 5.1-2.6 6.9-3 13.9-3 5.2 0 10 .7 13.5 1.8 2.9 1 5.4 1.7 5.6 1.5.1-.2.5-2.2.9-4.5l.6-4.2-5.2-1.6c-7.6-2.4-20.2-2.8-26.5-1zM353.5 14.9c-10.7 4.8-13.9 17.9-6.6 26.8l3.1 3.7-4.5 4.4c-8.3 8.4-10.1 17.2-5.1 25.7 4 6.8 9.3 9.8 16.9 9.9 7.3 0 11.2-1.7 17.4-7.7l4.3-4.1 2.7 2.4c1.6 1.3 3.8 3.6 5 5l2.3 2.5 3.7-3.7 3.7-3.8-4.7-4.4c-2.6-2.4-4.7-4.8-4.7-5.4 0-.6 1.4-2 3-3.2 1.7-1.2 3-2.7 3-3.4 0-1.3-5.4-6.6-6.7-6.6-.4 0-2.2 1.4-4 3.2l-3.3 3.2-10.8-10.5c-15.8-15.3-17.6-18.5-13.1-23 1.8-1.8 2.9-2.1 6.9-1.6 4.4.5 5 .3 7.9-2.7 3.6-3.7 3.3-4.4-3.2-7.1-4.8-2-8.3-1.9-13.2.4zm11.2 44.5c7.7 7.3 7.7 7.7.4 13.4-5.7 4.3-9.3 4.2-13.8-.3-3.2-3.2-3.5-4-3-7.7.4-2.9 1.6-5.1 4.3-7.9 2.1-2.2 4.2-3.9 4.6-3.9.4 0 3.8 2.9 7.5 6.4zM455.8 14.9c-10.4 3.4-15.5 7.9-20.7 18.4-2.2 4.6-2.5 6.5-2.5 16.2-.1 10.4.1 11.3 3.2 17.6 3.7 7.7 8.3 12.1 16 15.7 4.6 2.1 6.9 2.5 14.6 2.4 5.5 0 10.7-.6 13.2-1.5 10.2-3.7 18.3-13 20.5-23.6 1.7-8.1.7-21.9-2-27.3-7.6-15.9-25.3-23.3-42.3-17.9zm22 10c2.2 1.1 5.2 3.5 6.5 5.3 7.7 10.3 7.5 30.3-.3 39.2-9.2 10.4-27.4 9.6-35.6-1.5-7.3-9.9-7-28.2.6-37.6 2.2-2.7 6.6-5.5 12-7.7 2.9-1.1 12.7.2 16.8 2.3zM729.2 14.9C720.1 18 716 23.6 716 32.7c0 4.8 2.5 10.4 5.9 13.1.9.7 6 3.5 11.3 6.2 8.3 4.3 10.1 5.6 11.8 9 2.5 5 1.9 8-2.6 11.9-5.3 4.7-9.4 4.9-23.1 1.4-2.1-.5-2.3-.2-2.3 4 0 4.4.2 4.6 3.8 5.8 5.2 1.7 19 1.4 23.8-.6 8.2-3.4 12.4-9.7 12.4-18.5 0-10.1-4.2-15.1-18.9-22.4-6.8-3.4-9.1-5.2-10.3-7.6-4.4-9.1 6.6-15.6 19.5-11.6 5.4 1.6 5.8 1.3 6.1-4.6.1-3.1-.1-3.3-4.9-4.4-7.3-1.7-13.3-1.6-19.3.5zM5.2 49.7l.3 34.8 12.5-.1c16.2-.1 20.8-.9 26.3-4.5 11.6-7.6 8.8-26.1-4.6-30.1l-3.8-1.1 3.3-1.4c11-4.6 14.2-17.2 6.6-25.9-4.4-5-10.3-6.4-27-6.4H5l.2 34.7zm28.3-25.3c4 1.7 5.5 4.2 5.5 9.1C39 41.2 34.6 44 22.5 44H15V23h7.5c4.3 0 9 .6 11 1.4zm.3 30.2c5.6 2.2 8.2 8 6.2 13.9-1.7 5.3-6.8 7.5-17 7.5h-8V53h7.5c4.4 0 9 .6 11.3 1.6zM90.5 21.2c-1.5 3.5-4.1 9-5.6 12.3-1.5 3.3-4.7 10.7-7.2 16.5-2.5 5.8-6.6 15.2-9.2 21-6.6 14.9-6.6 14-1.2 14 2.6 0 5.1-.6 5.7-1.3.7-.6 2.6-4.6 4.4-8.7l3.2-7.5 17.7-.3L116 67l1.4 3.2c.8 1.8 2.6 5.9 4 9l2.5 5.8h5c2.8 0 5.1-.4 5.1-1 0-.9-6.2-15.7-11.7-28-1.6-3.6-3.6-8.1-4.3-10-.7-1.9-1.7-4-2.2-4.6-.4-.6-1.4-2.8-2.2-5-.7-2.1-2.7-6.8-4.3-10.4-1.7-3.6-3.3-7.5-3.7-8.8-.7-1.9-1.4-2.2-6.5-2.2h-5.7l-2.9 6.2zm10.3 8.3c.6 1.6 3.2 7.9 5.7 14 6.9 16.1 7.4 14.9-7.8 15.3-10.1.2-12.8 0-13.3-1.1-.3-.8 1.6-6.2 4.1-12C92 39.8 94 34.8 94 34.6c0-.2.9-2.6 2-5.2 2.2-5 3-4.9 4.8.1zM150.2 49.7l.3 34.8h10l.5-28.3.5-28.3 5.5 9.7c7 12.3 9.3 16.4 17.2 30.4 10.2 18.3 9.1 17.1 16.2 16.8l6.1-.3.3-34.8.2-34.7h-11v55.5l-5.3-9.5c-3-5.2-8.7-15.3-12.7-22.5-4-7.2-8.5-15.3-10.1-18l-2.7-5-7.6-.3-7.6-.3.2 34.8zM522.2 49.7l.3 34.8 19.8.3 19.7.2v-9h-30V15h-10l.2 34.7zM576 39c0 21.9.2 24.4 2.1 29.5 4.4 11.9 12 16.8 25.8 16.8 10.3 0 16.3-2.4 21.5-8.4 5.4-6.4 5.9-9 6.3-36.7l.5-25.2h-10l-.4 23.7c-.5 26.8-1.4 30.7-7.9 35.4-4.6 3.3-15.3 3.5-19.5.3-7.3-5.4-8.4-10.5-8.4-39.7V15h-10v24zM657.2 49.7l.3 34.8h9l.3-15.7.3-15.7 13.2-.3 13.2-.3.3-4.2.3-4.2-13.3-.3-13.3-.3-.3-9.7-.3-9.7 13.8-.3 13.8-.3.3-4.3.3-4.2H657l.2 34.7zM781 50v35l19.8-.2 19.7-.3.3-4.2.3-4.2-14.8-.3-14.8-.3-.3-11.3-.3-11.2H818v-8.9l-13.2-.3-13.3-.3-.3-9.7-.3-9.7 14.8-.3 14.8-.3.3-4.3.3-4.2H781v35zM845.2 49.7l.3 34.8 4.7.3 4.8.3.2-28.8.3-28.8 2.6 4c1.5 2.2 7 11.9 12.4 21.5s11.7 20.6 14 24.5l4.1 7 6.2.3 6.2.3V15h-10v27.1c0 16.3-.4 26.8-.9 26.4-.5-.3-3.6-5.4-6.9-11.3-3.2-5.9-9-16.1-12.7-22.7-3.7-6.6-7.7-13.7-8.9-15.7l-2.1-3.8H845l.2 34.7z"/></svg>